<svg width="80" height="80" viewBox="0 0 80 80" fill="none" xmlns="http://www.w3.org/2000/svg">
<circle cx="40" cy="40" r="40" fill="#F16214" fill-opacity="0.15"/>
<path d="M33.9285 49.3655C33.7057 50.9291 32.9262 52.3599 31.7332 53.395C30.5401 54.4301 29.0137 55 27.4342 55C25.8547 55 24.3283 54.4301 23.1352 53.395C21.9422 52.3599 21.1627 50.9291 20.9399 49.3655H19V26.8743C19 26.3772 19.1975 25.9005 19.549 25.549C19.9005 25.1975 20.3772 25 20.8743 25H47.114C47.6111 25 48.0878 25.1975 48.4393 25.549C48.7908 25.9005 48.9883 26.3772 48.9883 26.8743V30.6228H54.6111L60.2339 38.2248V49.3655H56.4197C56.1969 50.9291 55.4174 52.3599 54.2244 53.395C53.0313 54.4301 51.5049 55 49.9254 55C48.3459 55 46.8195 54.4301 45.6264 53.395C44.4334 52.3599 43.6539 50.9291 43.4311 49.3655H33.9285ZM45.2397 28.7485H22.7485V43.8364C23.488 43.0814 24.399 42.5163 25.4039 42.1891C26.4088 41.8619 27.4779 41.7824 28.5201 41.9572C29.5624 42.1321 30.5469 42.5561 31.39 43.1933C32.2332 43.8305 32.9098 44.662 33.3625 45.6169H43.9971C44.312 44.9553 44.7337 44.3537 45.2397 43.8364V28.7485ZM48.9883 39.9941H56.4853V39.46L52.7218 34.3713H48.9883V39.9941ZM49.9254 51.2397C50.6713 51.2397 51.3866 50.9434 51.914 50.416C52.4414 49.8886 52.7377 49.1733 52.7377 48.4274C52.7377 47.6815 52.4414 46.9662 51.914 46.4388C51.3866 45.9114 50.6713 45.6151 49.9254 45.6151C49.1795 45.6151 48.4642 45.9114 47.9368 46.4388C47.4094 46.9662 47.1131 47.6815 47.1131 48.4274C47.1131 49.1733 47.4094 49.8886 47.9368 50.416C48.4642 50.9434 49.1795 51.2397 49.9254 51.2397ZM30.2456 48.4283C30.2456 48.0591 30.1729 47.6935 30.0316 47.3525C29.8903 47.0114 29.6832 46.7014 29.4222 46.4404C29.1611 46.1793 28.8512 45.9722 28.5101 45.8309C28.169 45.6896 27.8034 45.6169 27.4342 45.6169C27.065 45.6169 26.6994 45.6896 26.3583 45.8309C26.0172 45.9722 25.7073 46.1793 25.4462 46.4404C25.1852 46.7014 24.9781 47.0114 24.8368 47.3525C24.6955 47.6935 24.6228 48.0591 24.6228 48.4283C24.6228 49.174 24.919 49.889 25.4462 50.4163C25.9735 50.9435 26.6886 51.2397 27.4342 51.2397C28.1798 51.2397 28.8949 50.9435 29.4222 50.4163C29.9494 49.889 30.2456 49.174 30.2456 48.4283Z" fill="#F16214"/>
</svg>
