<svg width="80" height="80" viewBox="0 0 80 80" fill="none" xmlns="http://www.w3.org/2000/svg">
<circle cx="40" cy="40" r="40" fill="#F16214" fill-opacity="0.15"/>
<path d="M54 25V55H51V43H46.5V32.5C46.5 30.5109 47.2902 28.6032 48.6967 27.1967C50.1032 25.7902 52.0109 25 54 25ZM36 42.85V55H33V42.85C31.3062 42.5037 29.784 41.5831 28.6907 40.2438C27.5974 38.9045 27.0002 37.2288 27 35.5V26.5H30V37H33V26.5H36V37H39V26.5H42V35.5C41.9998 37.2288 41.4026 38.9045 40.3093 40.2438C39.216 41.5831 37.6938 42.5037 36 42.85Z" fill="#F16214"/>
</svg>
