<svg width="40" height="40" viewBox="0 0 40 40" fill="none" xmlns="http://www.w3.org/2000/svg">
<circle cx="20" cy="20" r="20" fill="#F16214"/>
<path d="M19.6274 28L14.9411 23.3137C14.0142 22.3868 13.3831 21.2059 13.1273 19.9203C12.8716 18.6347 13.0029 17.3022 13.5045 16.0912C14.0061 14.8802 14.8556 13.8451 15.9454 13.1169C17.0353 12.3887 18.3166 12 19.6274 12C20.9382 12 22.2195 12.3887 23.3094 13.1169C24.3993 13.8451 25.2487 14.8802 25.7503 16.0912C26.252 17.3022 26.3832 18.6347 26.1275 19.9203C25.8718 21.2059 25.2406 22.3868 24.3137 23.3137L19.6274 28ZM23.2725 22.2724C23.9933 21.5515 24.4842 20.6331 24.6831 19.6332C24.8819 18.6333 24.7798 17.5969 24.3897 16.655C23.9995 15.7131 23.3388 14.9081 22.4911 14.3418C21.6435 13.7754 20.6469 13.4731 19.6274 13.4731C18.6079 13.4731 17.6114 13.7754 16.7637 14.3418C15.916 14.9081 15.2553 15.7131 14.8652 16.655C14.475 17.5969 14.3729 18.6333 14.5718 19.6332C14.7706 20.6331 15.2615 21.5515 15.9823 22.2724L19.6274 25.9175L23.2725 22.2724ZM19.6274 20.1001C19.2368 20.1001 18.8622 19.945 18.586 19.6688C18.3098 19.3926 18.1547 19.018 18.1547 18.6274C18.1547 18.2368 18.3098 17.8622 18.586 17.586C18.8622 17.3098 19.2368 17.1546 19.6274 17.1546C20.018 17.1546 20.3926 17.3098 20.6688 17.586C20.945 17.8622 21.1002 18.2368 21.1002 18.6274C21.1002 19.018 20.945 19.3926 20.6688 19.6688C20.3926 19.945 20.018 20.1001 19.6274 20.1001Z" fill="white"/>
</svg>
