<svg width="40" height="40" viewBox="0 0 40 40" fill="none" xmlns="http://www.w3.org/2000/svg">
<circle cx="20" cy="20" r="20" fill="#F16214"/>
<path d="M17.6587 18.8284C18.4927 20.2938 19.7062 21.5073 21.1716 22.3413L21.9573 21.2409C22.0837 21.0639 22.2705 20.9394 22.4825 20.891C22.6945 20.8425 22.9168 20.8734 23.1076 20.9778C24.3647 21.6648 25.7531 22.078 27.1813 22.1902C27.4042 22.2079 27.6123 22.3089 27.764 22.4732C27.9158 22.6374 28 22.8528 28 23.0764V27.0427C28 27.2628 27.9184 27.475 27.771 27.6384C27.6235 27.8018 27.4207 27.9047 27.2018 27.9271C26.7307 27.976 26.256 28 25.7778 28C18.1689 28 12 21.8311 12 14.2222C12 13.744 12.024 13.2693 12.0729 12.7982C12.0953 12.5793 12.1982 12.3765 12.3616 12.229C12.525 12.0816 12.7372 12 12.9573 12H16.9236C17.1472 12 17.3626 12.0842 17.5268 12.236C17.6911 12.3877 17.7921 12.5958 17.8098 12.8187C17.922 14.2469 18.3352 15.6353 19.0222 16.8924C19.1266 17.0832 19.1575 17.3055 19.109 17.5175C19.0606 17.7295 18.9361 17.9163 18.7591 18.0427L17.6587 18.8284ZM15.4169 18.2444L17.1058 17.0382C16.6265 16.0036 16.2981 14.9056 16.1307 13.7778H13.7867C13.7813 13.9253 13.7787 14.0738 13.7787 14.2222C13.7778 20.8498 19.1502 26.2222 25.7778 26.2222C25.9262 26.2222 26.0747 26.2196 26.2222 26.2133V23.8693C25.0944 23.7019 23.9964 23.3735 22.9618 22.8942L21.7556 24.5831C21.2699 24.3944 20.7982 24.1716 20.344 23.9164L20.2924 23.8871C18.549 22.8949 17.1051 21.451 16.1129 19.7076L16.0836 19.656C15.8284 19.2018 15.6056 18.7301 15.4169 18.2444Z" fill="white"/>
</svg>
