<svg width="80" height="80" viewBox="0 0 80 80" fill="none" xmlns="http://www.w3.org/2000/svg">
<circle cx="40" cy="40" r="40" fill="#F16214" fill-opacity="0.15"/>
<path d="M26.981 25.1244L38.3333 36.4767L33.5537 41.2579L26.9793 34.6835C25.712 33.4158 25 31.6966 25 29.904C25 28.1114 25.712 26.3922 26.9793 25.1244H26.981ZM43.9596 39.2163L42.5162 40.6597L54.4668 52.6102L52.077 55L40.1265 43.0511L28.1759 55L25.7861 52.6102L41.5698 36.8266C40.576 34.3641 41.6036 30.8183 44.3077 28.1108C47.6085 24.8118 52.1565 24.009 54.4668 26.3193C56.7772 28.6297 55.9744 33.1777 52.6753 36.4767C49.9678 39.1842 46.422 40.2118 43.9596 39.2163Z" fill="#F16214"/>
</svg>
