<svg width="40" height="40" viewBox="0 0 40 40" fill="none" xmlns="http://www.w3.org/2000/svg">
<circle cx="20" cy="20" r="20" fill="#F16214"/>
<path d="M20 28C15.5816 28 12 24.4184 12 20C12 15.5816 15.5816 12 20 12C24.4184 12 28 15.5816 28 20C28 24.4184 24.4184 28 20 28ZM20 26.4C21.6974 26.4 23.3253 25.7257 24.5255 24.5255C25.7257 23.3253 26.4 21.6974 26.4 20C26.4 18.3026 25.7257 16.6747 24.5255 15.4745C23.3253 14.2743 21.6974 13.6 20 13.6C18.3026 13.6 16.6747 14.2743 15.4745 15.4745C14.2743 16.6747 13.6 18.3026 13.6 20C13.6 21.6974 14.2743 23.3253 15.4745 24.5255C16.6747 25.7257 18.3026 26.4 20 26.4ZM20.8 20H24V21.6H19.2V16H20.8V20Z" fill="white"/>
</svg>
